<?xml version="1.0" encoding="UTF-8" standalone="no"?>
<!-- Created with Inkscape (http://www.inkscape.org/) -->

<svg
   xmlns:dc="http://purl.org/dc/elements/1.1/"
   xmlns:cc="http://creativecommons.org/ns#"
   xmlns:rdf="http://www.w3.org/1999/02/22-rdf-syntax-ns#"
   xmlns:svg="http://www.w3.org/2000/svg"
   xmlns="http://www.w3.org/2000/svg"
   xmlns:sodipodi="http://sodipodi.sourceforge.net/DTD/sodipodi-0.dtd"
   xmlns:inkscape="http://www.inkscape.org/namespaces/inkscape"
   id="svg3406"
   version="1.1"
   inkscape:version="0.91 r13725"
   width="202.02478"
   height="455.03995"
   viewBox="0 0 202.02478 455.03995"
   sodipodi:docname="silhouette-femme-07.svg">
  <title
     id="title3335">Silhouette Femme 07</title>
  <metadata
     id="metadata3412">
    <rdf:RDF>
      <cc:Work
         rdf:about="">
        <dc:format>image/svg+xml</dc:format>
        <dc:type
           rdf:resource="http://purl.org/dc/dcmitype/StillImage" />
        <dc:title>Silhouette Femme 07</dc:title>
        <cc:license
           rdf:resource="http://creativecommons.org/publicdomain/zero/1.0/" />
        <dc:date>2017-02-15</dc:date>
        <dc:creator>
          <cc:Agent>
            <dc:title>JLouis</dc:title>
          </cc:Agent>
        </dc:creator>
        <dc:rights>
          <cc:Agent>
            <dc:title>Domaine pubic</dc:title>
          </cc:Agent>
        </dc:rights>
        <dc:publisher>
          <cc:Agent>
            <dc:title>inkscape</dc:title>
          </cc:Agent>
        </dc:publisher>
        <dc:subject>
          <rdf:Bag>
            <rdf:li>Silhouette</rdf:li>
            <rdf:li>woman</rdf:li>
            <rdf:li>femme</rdf:li>
          </rdf:Bag>
        </dc:subject>
        <dc:description>Woman in silhouette - Femme en silhouette</dc:description>
      </cc:Work>
      <cc:License
         rdf:about="http://creativecommons.org/publicdomain/zero/1.0/">
        <cc:permits
           rdf:resource="http://creativecommons.org/ns#Reproduction" />
        <cc:permits
           rdf:resource="http://creativecommons.org/ns#Distribution" />
        <cc:permits
           rdf:resource="http://creativecommons.org/ns#DerivativeWorks" />
      </cc:License>
    </rdf:RDF>
  </metadata>
  <defs
     id="defs3410" />
  <sodipodi:namedview
     pagecolor="#ffffff"
     bordercolor="#666666"
     borderopacity="1"
     objecttolerance="10"
     gridtolerance="10"
     guidetolerance="10"
     inkscape:pageopacity="0"
     inkscape:pageshadow="2"
     inkscape:window-width="1239"
     inkscape:window-height="756"
     id="namedview3408"
     showgrid="false"
     fit-margin-top="0"
     fit-margin-left="0"
     fit-margin-right="0"
     fit-margin-bottom="0"
     inkscape:zoom="1.1894737"
     inkscape:cx="127.10912"
     inkscape:cy="229.75447"
     inkscape:window-x="0"
     inkscape:window-y="0"
     inkscape:window-maximized="1"
     inkscape:current-layer="svg3406" />
  <g
     id="g3416"
     transform="translate(-75.357688,-10.533097)">
    <path
       style="fill:#fefefe"
       d="m 191.3658,465.18384 c -4.68941,-1.3509 -5.13885,-4.95048 -1.50244,-12.03303 4.80431,-9.35726 4.86911,-22.13957 0.17123,-33.77581 -0.55513,-1.375 -1.65109,-4.87313 -2.43548,-7.7736 -1.51405,-5.59861 -18.66019,-29.30108 -23.53992,-32.5411 -3.44427,-2.28691 -3.35888,-2.53325 -5.08407,14.66567 -0.94795,9.45043 -0.9322,13.33703 0.0565,13.94809 0.75385,0.46591 1.51752,3.85173 1.69702,7.52403 0.1795,3.6723 0.69181,12.09426 1.13847,18.71547 l 0.8121,12.03858 -3.53247,2.33642 c -1.94288,1.28504 -4.65508,2.95568 -6.02713,3.71252 -1.37205,0.75684 -2.67707,2.9124 -2.90006,4.79011 -0.50714,4.27041 -6.28721,6.95881 -14.96154,6.95881 -4.75689,0 -6.66982,-0.63609 -8.8309,-2.93644 -2.24972,-2.39472 -2.53524,-3.52402 -1.54769,-6.12147 0.66602,-1.75176 0.86829,-3.52769 0.44949,-3.94649 -0.90823,-0.90823 7.03615,-8.23723 8.9587,-8.26474 0.73555,-0.01 0.57695,-0.50101 -0.35245,-1.08995 -1.33854,-0.84822 -1.14531,-1.45218 0.92955,-2.90548 1.44065,-1.00907 2.26153,-2.19249 1.82419,-2.62984 -0.43735,-0.43735 -0.10588,-1.62565 0.73646,-2.64069 0.84241,-1.01504 1.75791,-3.138 2.03446,-4.71771 1.67805,-9.58533 2.27692,-11.71562 3.52534,-12.54055 0.97351,-0.64328 0.92201,-0.92409 -0.17194,-0.9375 -0.96627,-0.0113 -1.48575,-1.56811 -1.36241,-4.08164 0.19724,-4.01973 -0.59575,-9.0375 -4.69171,-29.6875 -1.35773,-6.8451 -2.1846,-17.74011 -2.32425,-30.625 -0.23141,-21.35061 -0.50085,-23.30233 -5.34946,-38.75 -1.72632,-5.5 -3.31898,-10.66375 -3.53927,-11.47499 -0.22028,-0.81125 -3.10516,-1.82782 -6.41083,-2.25905 -9.45052,-1.23285 -17.49795,-3.20711 -19.732254,-4.84087 -1.675242,-1.22497 -1.804515,-2.14654 -0.706286,-5.0351 0.739349,-1.94463 3.02519,-12.61542 5.07964,-23.71284 2.05446,-11.09744 5.41394,-25.5209 7.46553,-32.05215 2.05158,-6.53125 3.73643,-12.58289 3.7441,-13.44809 0.0327,-3.68887 -5.3536,1.99381 -10.22445,10.78703 -2.80714,5.06766 -6.676049,11.00451 -8.597566,13.193 -1.921519,2.18848 -3.875794,5.50157 -4.342835,7.36241 -0.990605,3.94689 -7.436323,9.14416 -8.734875,7.04306 -0.461558,-0.74681 -1.578917,-1.07399 -2.483019,-0.72705 -0.992559,0.38088 -2.484458,-1.14071 -3.765623,-3.84056 -1.858676,-3.91688 -1.915412,-5.10836 -0.457512,-9.60809 2.318211,-7.15501 7.237937,-11.9292 11.460966,-11.12191 3.465069,0.66239 4.329231,-0.9439 4.478816,-8.32515 0.03411,-1.6832 1.22201,-4.4957 2.639775,-6.25 6.652273,-8.23135 15.876823,-21.97699 20.322823,-30.28333 2.69553,-5.03597 6.18008,-10.84382 7.74345,-12.90632 6.33662,-8.35966 6.77752,-10.20265 4.26373,-17.82246 C 126.03037,152.73521 125,147.47035 125,144.85286 c 0,-6.12589 4.53475,-18.26591 7.39472,-19.79652 3.19318,-1.70893 7.40383,-13.53895 6.64572,-18.6714 -0.4381,-2.96593 -0.20023,-3.97673 0.79162,-3.36373 2.15174,1.32984 1.75356,-4.464345 -0.63594,-9.254212 -3.01331,-6.04031 -1.42658,-52.270844 2.1448,-62.490699 3.03835,-8.694531 8.186,-16.11986 13.20882,-19.053345 3.61501,-2.111279 4.40083,-2.138942 11.1111,-0.39114 9.15162,2.383696 12.07552,4.331355 17.48257,11.645454 4.6463,6.28502 8.28611,16.99945 10.30755,30.342113 2.23196,14.732142 11.31354,30.390525 21.81953,37.62102 5.19226,3.57346 10.76143,15.753279 11.65793,25.495989 1.6197,17.60236 7.90625,36.82186 15.16119,46.35152 3.16503,4.15738 6.4134,11.77364 14.05851,32.96209 5.05152,14.00025 8.57463,21.143 16.33869,33.125 4.25315,6.56374 4.86421,8.43626 4.89493,15 0.0251,5.36511 -0.59049,8.24834 -2.16258,10.12898 -4.61416,5.51971 -9.53332,6.29131 -13.72202,2.15238 -1.23202,-1.21736 -1.3216,-2.71768 -0.36844,-6.16977 1.08011,-3.91184 0.82246,-5.38209 -1.80964,-10.32648 -1.83754,-3.4518 -3.06906,-7.84381 -3.06906,-10.94522 0,-5.55095 -5.0644,-14.37368 -14.65756,-25.53507 C 235.67335,196.79313 230,189.17869 230,188.12112 c 0,-0.43762 -1.58615,-3.14703 -3.52477,-6.02089 -3.93197,-5.82884 -5.85459,-10.32294 -7.58308,-17.72523 -1.57159,-6.73044 -6.31645,-19.71569 -7.74199,-21.1875 C 210.4458,142.46027 210,144.91327 210,149.51614 c 0,6.60325 -0.42581,7.92408 -3.5059,10.875 -1.92824,1.84737 -4.1638,3.35886 -4.9679,3.35886 -0.8041,0 -2.38316,1.82812 -3.50904,4.0625 -1.12587,2.23437 -3.59634,5.75 -5.48992,7.8125 -4.05289,4.41444 -5.39069,8.86024 -3.64673,12.11886 0.68869,1.28681 1.47845,5.274 1.75503,8.8604 0.27657,3.58642 1.09048,9.55064 1.80866,13.25385 1.41017,7.27133 1.80699,80.16339 0.49582,91.07939 l -0.78825,6.5625 -9.51338,0.0125 -9.51339,0.0125 -4.07588,10.92549 c -6.30327,16.89603 -5.84901,18.72788 7.85905,31.6924 5.74357,5.43202 7.67042,8.63138 14.35093,23.82846 4.24412,9.6547 8.28334,19.17975 8.97602,21.1668 0.79348,2.27615 2.13915,3.61281 3.63717,3.61281 1.47777,0 2.37771,0.87286 2.37771,2.3062 0,1.26841 2.39062,5.85949 5.3125,10.20239 2.92187,4.34289 6.29391,9.35197 7.49342,11.13129 2.40575,3.56865 2.87283,10.25622 0.96524,13.82057 -0.67585,1.26285 -1.73942,6.85984 -2.36347,12.43775 -1.16624,10.42413 -2.55025,13.41059 -6.98132,15.06461 -4.04533,1.51004 -16.01098,2.42155 -19.31057,1.47103 z"
       id="path3420"
       inkscape:connector-curvature="0" />
    <path
       style="fill:#fa9491"
       d="m 191.3658,465.18384 c -5.94717,-16.42169 9.97665,-34.77945 -2.95864,-50.98613 -6.20055,-12.44284 -15.99527,-31.8495 -27.31778,-36.27738 -4.0062,14.99477 -1.79521,30.1799 0.12533,45.2698 6.10899,18.88375 -6.25523,33.23548 -21.57218,41.28857 -18.12596,2.84026 -16.67972,-20.41273 -4.67815,-25.07226 7.01412,-13.36164 8.50471,-27.63417 4.71956,-42.24318 -3.68536,-19.64457 -6.37646,-39.51737 -5.40347,-59.53936 -2.85303,-16.17398 -2.48272,-43.393 -25.08636,-40.93445 -22.848196,-5.24846 -0.72671,-32.4207 -2.16006,-47.50979 0.54022,-8.41406 9.41391,-26.86454 5.73455,-28.84556 -13.976602,7.05123 -18.071304,45.99313 -35.78805,32.73726 -6.303715,-12.13918 8.111522,-20.7962 14.033718,-23.98002 5.305904,-18.47686 21.032052,-31.578 28.955982,-48.94739 16.39677,-17.44034 -2.17428,-40.23246 13.54583,-57.71646 14.56929,-17.18574 1.02529,-36.612326 4.31802,-55.714845 1.7879,-18.512956 -1.4753,-42.872069 16.94189,-54.159465 21.84068,-7.2895166 37.00784,19.271366 37.96752,38.035677 0.4066,24.14863 22.85571,36.670917 31.73686,56.178103 3.92606,22.85217 8.74166,45.40073 21.91905,64.98128 8.91359,18.26865 12.75424,38.70726 24.79606,55.4631 11.58034,9.49309 7.98764,37.64677 -9.61902,28.78529 -0.9774,-19.35934 -7.70783,-40.79011 -22.18156,-54.9192 -14.03049,-15.18262 -20.48326,-34.99145 -26.31844,-54.23812 -5.956,-5.59149 -1.91146,15.7138 -10.9017,17.47627 -21.09454,13.1829 -9.48935,36.0303 -9.22878,55.5452 1.76112,27.8876 0.46187,55.9193 0.19717,83.77283 -7.44887,8.19283 -24.95805,-1.20033 -25.5539,16.59317 -9.70355,22.00275 19.47799,33.69284 23.22777,53.33468 5.74029,20.75143 24.72758,34.8466 29.00038,55.52546 0.44539,19.57627 -2.23964,42.70397 -28.4516,36.09692 z"
       id="path3418"
       inkscape:connector-curvature="0" />
  </g>
</svg>
